<?xml version="1.0" standalone="no"?>
<!DOCTYPE svg PUBLIC "-//W3C//DTD SVG 20010904//EN"
 "http://www.w3.org/TR/2001/REC-SVG-20010904/DTD/svg10.dtd">
<svg version="1.0" xmlns="http://www.w3.org/2000/svg"
 width="165.000000pt" height="165.000000pt" viewBox="0 0 165.000000 165.000000"
 preserveAspectRatio="xMidYMid meet">
<metadata>
Created by potrace 1.14, written by Peter Selinger 2001-2017
</metadata>
<g transform="translate(0.000000,165.000000) scale(0.100000,-0.100000)"
fill="#000000" stroke="none">
<path d="M650 1459 c-102 -66 -186 -122 -187 -127 -1 -4 48 -38 109 -77 61
-38 123 -78 137 -87 26 -17 28 -17 71 12 25 17 50 30 57 30 6 0 73 -39 147
-87 75 -49 143 -93 153 -98 10 -6 43 -26 73 -46 30 -19 60 -38 66 -42 12 -7
17 328 5 350 -5 10 -285 193 -411 270 l-35 21 -185 -119z"/>
<path d="M389 1248 c0 -51 0 -286 1 -308 0 -8 43 -42 95 -75 53 -33 120 -76
150 -95 30 -19 110 -70 177 -113 68 -43 200 -127 293 -187 94 -60 173 -109
176 -110 4 0 6 79 6 175 0 147 -3 177 -16 188 -9 8 -198 130 -421 272 -223
142 -417 267 -432 277 l-28 19 -1 -43z"/>
<path d="M389 691 c0 -27 0 -261 0 -305 1 -33 6 -37 222 -176 122 -78 227
-139 234 -136 17 6 347 216 362 230 9 8 -24 33 -128 99 l-140 89 -49 -32 c-28
-18 -56 -29 -63 -26 -6 4 -31 19 -55 34 -23 15 -109 69 -190 121 -81 52 -157
101 -169 109 -21 13 -23 13 -24 -7z"/>
</g>
</svg>
