<?xml version="1.0" encoding="utf-8"?>
<!-- Svg Vector Icons : http://www.onlinewebfonts.com/icon -->
<!DOCTYPE svg PUBLIC "-//W3C//DTD SVG 1.1//EN" "http://www.w3.org/Graphics/SVG/1.1/DTD/svg11.dtd">
<svg version="1.1" xmlns="http://www.w3.org/2000/svg" xmlns:xlink="http://www.w3.org/1999/xlink" x="0px" y="0px" fill="#fff" viewBox="0 0 1000 1000" enable-background="new 0 0 1000 1000" xml:space="preserve">
<metadata> Svg Vector Icons : http://www.onlinewebfonts.com/icon </metadata>
<g><path d="M500,10C229.4,10,10,229.4,10,500c0,270.6,219.4,490,490,490c270.6,0,490-219.4,490-490C990,229.4,770.6,10,500,10L500,10z M500,924C265.8,924,76,734.2,76,500S265.8,76,500,76c234.2,0,424,189.8,424,424S734.2,924,500,924z"/><path d="M168.7,487.5l38,20.3c0,0,17.3,10.3,26.4-8.9l94-204.7c0,0,8.9-17.5-5.6-25.7L280,247.4c0,0-12.8-7.5-21.2,8.3c-0.3,6.3-96.4,208.6-96.4,208.6S156.2,480.8,168.7,487.5L168.7,487.5L168.7,487.5z M788.4,508.3l38.7-18.6c0,0,18.5-7.8,9.6-27.2l-96.7-203.3c0,0-7.7-18-22.9-11.2l-41.4,20.9c0,0-13.6,5.9-6.9,22.5c4.6,4.2,98.1,207.9,98.1,207.9S775.7,514.4,788.4,508.3L788.4,508.3L788.4,508.3z M260.7,507.6l12.8-28.2l44.9,59.1c0,0,29.2-7,39.4,12.1c0,0,9.6,11.6,5.4,33.4c0,0,6,4.6,6.5,7.4c0,0,20.1-5.1,32.2,9.8c0,0,11.1,9.2,9.8,27.2c0,0,8,3.6,9.6,8.5c0,0,19.7-5.1,29.3,6.9c0,0,11.7,11.4,10.8,24.7l18.3,14c0,0,17.1,1.5,19.8,15.4l16.4,12.7c0,0,26.3,10.8,27.8-16.5l-61.7-49c0,0-7.2-19.7,15.4-16.7l92,67.5c0,0,15.1,6.7,24.2-8.2c0,0,8.9-12.8-3.7-26.7l-97.9-73.7c0,0-8.6-20.6,13.6-19L642,653.7c0,0,16.5,6.8,23.4-6c0,0,9.4-12.8,0-26l-128.2-97.4c0,0-7.7-23.4,16.3-17.3l132.2,98.1c0,0,20,6.6,28.9-10.4c0,0,11.3-18.3-3.9-33.3l-187-169.9c0,0-34.8-17.3-55.5,18.9c0,0-3.6,59-66.5,69.7c0,0-42.9-3.4-32.9-32.8c0,0,12.6-17.4,11.5-53.9c0,0,1.4-26.2,18.9-48.6h-67.3l14.8-31.9h101.7c0,0,41.8-24.7,73.3-22.4c0,0,41.1,2.3,52.1,8.9c0,0,54.4,18.1,78.8,13.9l91,196.5L729,544.1c0,0,26.6,28.5,7,63.1c-5.5,11.6-19.5,22.8-42.5,23.9c0,0,3.5,23.3-12.6,36.5c0,0-11.8,16.9-40.5,12.2c0,0,1.6,20.6-17.4,34.3c0,0-22.6,20.2-57.5-4.4c0,0-5.6,23.2-33.5,27.9c0,0-20.3,3.3-32.2-8.6c0,0-21.3,41.8-51.6,18.3c0,0-19.2-16.6-5.7-40c0,0-25.9,42.6-56.6,10.6c0,0-17-13.3-1.3-41.3c0,0-24.4,28.9-51.2,2.7c0,0-18.3-15.6-3.7-44.6c0,0-24.9,30.8-54,1.4c0,0-12.2-11.7-5.2-37.7l28.1-40L260.7,507.6L260.7,507.6z"/></g>
</svg>