<svg width="53" height="53" viewBox="0 0 53 53" fill="none" xmlns="http://www.w3.org/2000/svg">
<path d="M37.5417 46.375V41.9583C37.5417 39.6156 36.6111 37.3688 34.9545 35.7122C33.2979 34.0557 31.0511 33.125 28.7084 33.125H11.0417C8.69896 33.125 6.45217 34.0557 4.7956 35.7122C3.13903 37.3688 2.20837 39.6156 2.20837 41.9583V46.375" stroke="white" stroke-width="4" stroke-linecap="round" stroke-linejoin="round"/>
<path d="M19.875 24.2917C24.7535 24.2917 28.7083 20.3368 28.7083 15.4583C28.7083 10.5798 24.7535 6.625 19.875 6.625C14.9964 6.625 11.0416 10.5798 11.0416 15.4583C11.0416 20.3368 14.9964 24.2917 19.875 24.2917Z" stroke="white" stroke-width="4" stroke-linecap="round" stroke-linejoin="round"/>
<path d="M50.7916 46.375V41.9583C50.7902 40.0011 50.1387 38.0999 48.9396 36.553C47.7405 35.0062 46.0617 33.9014 44.1666 33.4121" stroke="white" stroke-width="4" stroke-linecap="round" stroke-linejoin="round"/>
<path d="M35.3334 6.91208C37.2335 7.39858 38.9176 8.50363 40.1202 10.053C41.3229 11.6024 41.9757 13.508 41.9757 15.4694C41.9757 17.4307 41.3229 19.3363 40.1202 20.8857C38.9176 22.4351 37.2335 23.5402 35.3334 24.0267" stroke="white" stroke-width="4" stroke-linecap="round" stroke-linejoin="round"/>
</svg>
