<svg width="54" height="53" viewBox="0 0 54 53" fill="none" xmlns="http://www.w3.org/2000/svg">
<path d="M49.5 26.5H36L31.5 33.125H22.5L18 26.5H4.5" stroke="white" stroke-width="4" stroke-linecap="round" stroke-linejoin="round"/>
<path d="M12.2625 11.2846L4.5 26.5V39.75C4.5 40.9214 4.97411 42.0448 5.81802 42.8731C6.66193 43.7013 7.80653 44.1667 9 44.1667H45C46.1935 44.1667 47.3381 43.7013 48.182 42.8731C49.0259 42.0448 49.5 40.9214 49.5 39.75V26.5L41.7375 11.2846C41.3649 10.5487 40.7906 9.9295 40.0792 9.49646C39.3677 9.06343 38.5472 8.83378 37.71 8.83334H16.29C15.4528 8.83378 14.6323 9.06343 13.9209 9.49646C13.2094 9.9295 12.635 10.5487 12.2625 11.2846V11.2846Z" stroke="white" stroke-width="4" stroke-linecap="round" stroke-linejoin="round"/>
</svg>
